<svg width="31" height="31" viewBox="0 0 31 31" fill="none" xmlns="http://www.w3.org/2000/svg">
<circle cx="15.5996" cy="15.3" r="15" fill="url(#paint0_linear_134_55)"/>
<g clip-path="url(#clip0_134_55)">
<path d="M23.9519 11.7017C23.913 10.8501 23.7777 10.2686 23.58 9.75977C23.3792 9.22595 23.0642 8.74243 22.6572 8.34277C22.2577 7.93579 21.774 7.62073 21.2402 7.4198C20.7313 7.22217 20.1499 7.08704 19.2983 7.04834C18.4452 7.00928 18.1726 7 16 7C13.8274 7 13.5548 7.00928 12.7017 7.0481C11.8501 7.08704 11.2687 7.22229 10.7598 7.42004C10.226 7.62085 9.74243 7.93579 9.34277 8.34277C8.93579 8.74231 8.62073 9.22583 8.4198 9.75964C8.22217 10.2686 8.08704 10.8501 8.04834 11.7015C8.00928 12.5548 8 12.8273 8 14.9999C8 17.1726 8.00928 17.4452 8.04834 18.2983C8.08716 19.1498 8.22241 19.7313 8.42017 20.2402C8.62097 20.7739 8.93591 21.2576 9.3429 21.6571C9.74243 22.0641 10.2261 22.379 10.7599 22.5798C11.2687 22.7777 11.8502 22.9128 12.7018 22.9518C13.5551 22.9907 13.8275 22.9999 16.0001 22.9999C18.1727 22.9999 18.4453 22.9907 19.2985 22.9518C20.15 22.9128 20.7314 22.7777 21.2404 22.5798C22.3149 22.1643 23.1644 21.3148 23.58 20.2402C23.7778 19.7313 23.913 19.1498 23.9519 18.2983C23.9907 17.4451 24 17.1726 24 15C24 12.8273 23.9907 12.5548 23.9519 11.7017ZM22.5118 18.2328C22.4763 19.0128 22.3459 19.4364 22.2365 19.7183C21.9673 20.416 21.4159 20.9674 20.7181 21.2366C20.4363 21.3461 20.0127 21.4764 19.2327 21.512C18.3893 21.5505 18.1362 21.5586 16 21.5586C13.8636 21.5586 13.6107 21.5505 12.7672 21.512C11.9873 21.4764 11.5637 21.3461 11.2817 21.2366C10.9343 21.1083 10.62 20.9038 10.3619 20.6381C10.0962 20.38 9.89172 20.0658 9.76343 19.7183C9.65393 19.4364 9.52356 19.0128 9.48804 18.2328C9.44958 17.3893 9.44141 17.1362 9.44141 15.0001C9.44141 12.8639 9.44958 12.611 9.48804 11.7673C9.52368 10.9873 9.65393 10.5637 9.76343 10.2819C9.89172 9.93433 10.0963 9.62 10.3619 9.36194C10.62 9.09619 10.9343 8.89172 11.2819 8.76355C11.5637 8.65393 11.9873 8.52368 12.7673 8.48804C13.6108 8.44959 13.8639 8.44141 16 8.44141H15.9999C18.136 8.44141 18.389 8.44959 19.2327 8.48816C20.0127 8.52368 20.4362 8.65405 20.7181 8.76355C21.0656 8.89185 21.3799 9.09631 21.6379 9.36194C21.9037 9.62 22.1082 9.93433 22.2363 10.2819C22.3459 10.5637 22.4763 10.9873 22.5118 11.7673C22.5503 12.6108 22.5585 12.8639 22.5585 15C22.5585 17.1362 22.5504 17.3892 22.5118 18.2328Z" fill="white"/>
<path d="M15.9996 10.8919C13.7308 10.8919 11.8916 12.7313 11.8916 15.0001C11.8916 17.2689 13.7308 19.1081 15.9996 19.1081C18.2686 19.1081 20.1078 17.2689 20.1078 15.0001C20.1078 12.7313 18.2686 10.8919 15.9996 10.8919ZM15.9996 17.6667C14.527 17.6666 13.333 16.4727 13.3331 14.9999C13.3331 13.5273 14.527 12.3333 15.9998 12.3333C17.4725 12.3334 18.6664 13.5273 18.6664 14.9999C18.6664 16.4727 17.4724 17.6667 15.9996 17.6667Z" fill="white"/>
<path d="M21.2296 10.7297C21.2296 11.2598 20.7998 11.6896 20.2697 11.6896C19.7394 11.6896 19.3096 11.2598 19.3096 10.7297C19.3096 10.1994 19.7394 9.76959 20.2697 9.76959C20.7998 9.76959 21.2296 10.1994 21.2296 10.7297Z" fill="white"/>
</g>
<defs>
<linearGradient id="paint0_linear_134_55" x1="30.5996" y1="1.3909" x2="0.599609" y2="28.9364" gradientUnits="userSpaceOnUse">
<stop stop-color="#7024C4"/>
<stop offset="0.415461" stop-color="#C21975"/>
<stop offset="0.702206" stop-color="#C74C4D"/>
<stop offset="1" stop-color="#E09B3D"/>
</linearGradient>
<clipPath id="clip0_134_55">
<rect width="16" height="16" fill="white" transform="translate(8 7)"/>
</clipPath>
</defs>
</svg>
