<svg width="31" height="31" viewBox="0 0 31 31" fill="none" xmlns="http://www.w3.org/2000/svg">
<circle cx="15.7998" cy="15.3" r="15" fill="#3CA04C"/>
<g clip-path="url(#clip0_134_61)">
<path d="M19.6714 16.5383L19.6654 16.5883C18.1994 15.8576 18.0461 15.7603 17.8568 16.0443C17.7254 16.2409 17.3428 16.6869 17.2274 16.8189C17.1108 16.9489 16.9948 16.9589 16.7968 16.8689C16.5968 16.7689 15.9548 16.5589 15.1948 15.8789C14.6028 15.3489 14.2054 14.6989 14.0881 14.4989C13.8928 14.1616 14.3014 14.1136 14.6734 13.4096C14.7401 13.2696 14.7061 13.1596 14.6568 13.0603C14.6068 12.9603 14.2088 11.9803 14.0421 11.5896C13.8821 11.2003 13.7174 11.2496 13.5941 11.2496C13.2101 11.2163 12.9294 11.2216 12.6821 11.4789C11.6061 12.6616 11.8774 13.8816 12.7981 15.1789C14.6074 17.5469 15.5714 17.9829 17.3341 18.5883C17.8101 18.7396 18.2441 18.7183 18.5874 18.6689C18.9701 18.6083 19.7654 18.1883 19.9314 17.7183C20.1014 17.2483 20.1014 16.8583 20.0514 16.7683C20.0021 16.6783 19.8714 16.6283 19.6714 16.5383Z" fill="white"/>
<path d="M21.68 9.29938C16.554 4.34405 8.07067 7.93804 8.06733 14.9287C8.06733 16.326 8.43333 17.6887 9.13067 18.892L8 23L12.2233 21.8987C17.4933 24.7454 23.9973 20.9654 24 14.9327C24 12.8154 23.1733 10.8227 21.67 9.32538L21.68 9.29938ZM22.668 14.9107C22.664 19.9994 17.078 23.1774 12.66 20.58L12.42 20.4374L9.92 21.0874L10.59 18.6574L10.4307 18.4074C7.68133 14.0307 10.84 8.31071 16.048 8.31071C17.8173 8.31071 19.478 9.00071 20.7287 10.2507C21.9787 11.49 22.668 13.1507 22.668 14.9107Z" fill="white"/>
</g>
<defs>
<clipPath id="clip0_134_61">
<rect width="16" height="16" fill="white" transform="translate(8 7)"/>
</clipPath>
</defs>
</svg>
